<?xml version="1.0" encoding="utf-8"?>

<!-- The icon can be used freely in both personal and commercial projects with no attribution required, but always appreciated.
You may NOT sub-license, resell, rent, redistribute or otherwise transfer the icon without express written permission from iconmonstr.com -->

<!DOCTYPE svg PUBLIC "-//W3C//DTD SVG 1.1//EN" "http://www.w3.org/Graphics/SVG/1.1/DTD/svg11.dtd">
<svg version="1.1" xmlns="http://www.w3.org/2000/svg" xmlns:xlink="http://www.w3.org/1999/xlink" x="0px" y="0px"
	 width="512px" height="512px" viewBox="0 0 512 512" enable-background="new 0 0 512 512" xml:space="preserve">
	 <g>
	     <path id="shipping-box-icon" fill ="#BBBBBB" d="M71.613,165.408L261,275.532v180.919L71.613,346.167V165.408z M368.771,198.712l58.956-32.673
	L235.328,54.418l-56.112,32.397L368.771,198.712z M149.381,104.041l-61.892,35.734l189.015,110.069l61.828-34.265L149.381,104.041z
	 M440.387,193.292v177.316L291,457.582V276.11L440.387,193.292z M342.88,352.446l-5.85,3.406l0.1,29.369l5.75-3.35V352.446z
	 M352.666,346.749l-5.75,3.348v29.426l5.75-3.348V346.749z M366.438,338.731l-5.756,3.352v29.426l5.756-3.352V338.731z
	 M376.057,333.132l-5.75,3.348v29.426l5.75-3.348V333.132z M385.844,327.435l-5.851,3.406v29.426l5.851-3.406V327.435z M400,319.192
	l-5.75,3.348v29.426l4.84-2.818l0.91-0.535V319.192z"></path>
    </g>
</svg>



