<?xml version="1.0" encoding="utf-8"?>

<!-- The icon can be used freely in both personal and commercial projects with no attribution required, but always appreciated.
You may NOT sub-license, resell, rent, redistribute or otherwise transfer the icon without express written permission from iconmonstr.com -->

<!DOCTYPE svg PUBLIC "-//W3C//DTD SVG 1.1//EN" "http://www.w3.org/Graphics/SVG/1.1/DTD/svg11.dtd">
<svg version="1.1" xmlns="http://www.w3.org/2000/svg" xmlns:xlink="http://www.w3.org/1999/xlink" x="0px" y="0px"
	 width="512px" height="512px" viewBox="0 0 512 512" enable-background="new 0 0 512 512" xml:space="preserve">
<g>
   <path id="shipping-box-open-icon" fill ="#78B2F2" d="M99.171,146.885L50,214.754l180.938,107.352l49.106-68.135L99.171,146.885z M281.693,304.201
	v146.672L91.335,340.023v-65.683l147.645,87.598L281.693,304.201z M311.848,269.607V452.01L462,364.59V186.364L311.848,269.607z
	 M363.993,375.912l-5.779,3.366l-0.1-29.52l5.879-3.424V375.912z M373.83,370.186l-5.779,3.364v-29.576l5.779-3.365V370.186z
	 M387.672,362.127l-5.785,3.368v-29.576l5.785-3.369V362.127z M397.341,356.498l-5.78,3.365v-29.577l5.78-3.364V356.498z
	 M407.178,350.771l-5.881,3.424v-29.576l5.881-3.424V350.771z M421.406,342.481l-0.914,0.538l-4.865,2.833v-29.577l5.779-3.365
	V342.481z M405.827,185.094L241.3,94.765l-87.32,50.53l-28.897-17.59L241.007,59.99l195.226,108.268L405.827,185.094z"></path>
</g>
</svg>
